<svg width="736" height="168" viewBox="0 0 736 168" xmlns="http://www.w3.org/2000/svg">
<path d="M60.398 9.71334C62.2321 11.9498 62.8582 15.3204 61.2074 18.35C55.5645 28.7061 52.3576 40.569 52.3576 53.1928C52.3576 93.6706 85.3613 126.447 126.026 126.447C131.325 126.447 136.487 125.891 141.46 124.837C144.86 124.116 147.952 125.654 149.61 128.016C151.319 130.453 151.678 134.089 149.295 137.015C133.91 155.904 110.37 168 83.9851 168C37.58 168 0 130.611 0 84.5362C0 49.8597 21.2806 20.1204 51.5727 7.51632C55.0726 6.06017 58.5056 7.40563 60.398 9.71334Z" fill="url(#paint0_linear_52_112)"/>
<path d="M168 84C168 130.392 130.392 168 84 168C37.6081 168 0 130.392 0 84C0 37.6081 37.6081 0 84 0C130.392 0 168 37.6081 168 84Z" fill="url(#paint1_linear_52_112)" fill-opacity="0.125"/>
<path d="M252 148.093V18H275.732V148.093H252ZM361.089 136.464H359.639C356.862 140.946 353.118 144.52 348.408 147.184C343.697 149.728 338.323 151 332.284 151C321.052 151 312.659 147.548 307.103 140.643C301.668 133.739 298.951 124.533 298.951 113.026V59.0628H322.683V110.119C322.683 116.539 324.072 121.323 326.849 124.473C329.748 127.501 333.915 129.015 339.349 129.015C342.61 129.015 345.449 128.349 347.864 127.016C350.4 125.563 352.514 123.685 354.205 121.384C356.016 118.961 357.345 116.175 358.19 113.026C359.156 109.755 359.639 106.303 359.639 102.669V59.0628H383.371V148.093H361.089V136.464ZM429.606 70.6913H431.055C433.833 66.2095 437.577 62.6967 442.287 60.153C446.997 57.4882 452.372 56.1557 458.41 56.1557C463.966 56.1557 468.857 57.0642 473.084 58.8811C477.312 60.6981 480.754 63.3024 483.411 66.694C486.188 69.9645 488.242 73.9617 489.57 78.6858C491.019 83.2887 491.744 88.4367 491.744 94.1298V148.093H468.012V97.0369C468.012 90.617 466.563 85.893 463.664 82.8648C460.886 79.7154 456.78 78.1407 451.345 78.1407C448.084 78.1407 445.186 78.8675 442.649 80.321C440.234 81.6535 438.12 83.531 436.309 85.9536C434.618 88.255 433.29 91.041 432.323 94.3115C431.478 97.4608 431.055 100.852 431.055 104.486V148.093H407.323V59.0628H429.606V70.6913ZM568.799 138.645H567.349C564.572 142.036 561.19 144.944 557.204 147.366C553.34 149.789 548.328 151 542.168 151C537.579 151 533.231 150.213 529.125 148.638C525.139 147.184 521.637 145.125 518.617 142.46C515.598 139.796 513.243 136.586 511.552 132.831C509.861 129.076 509.016 124.957 509.016 120.475C509.016 115.872 509.922 111.754 511.733 108.12C513.545 104.365 516.081 101.155 519.342 98.4904C522.603 95.8256 526.407 93.827 530.755 92.4945C535.224 91.041 540.055 90.3142 545.248 90.3142C551.045 90.3142 555.816 90.7987 559.56 91.7678C563.304 92.6157 566.383 93.5241 568.799 94.4932V91.7678C568.799 87.0437 566.927 83.1676 563.183 80.1393C559.439 76.99 554.789 75.4153 549.233 75.4153C541.021 75.4153 534.076 78.8675 528.4 85.7719L511.19 73.9618C520.61 62.0911 533.472 56.1557 549.777 56.1557C563.545 56.1557 574.052 59.4262 581.299 65.9672C588.545 72.3871 592.168 81.9563 592.168 94.6749V148.093H568.799V138.645ZM568.799 111.936C566.021 110.603 563.122 109.574 560.103 108.847C557.204 107.999 554.004 107.575 550.502 107.575C544.825 107.575 540.417 108.847 537.277 111.391C534.257 113.813 532.748 116.842 532.748 120.475C532.748 124.109 534.197 127.016 537.096 129.197C540.115 131.377 543.557 132.467 547.422 132.467C550.562 132.467 553.46 131.922 556.117 130.832C558.774 129.621 561.009 128.107 562.82 126.29C564.753 124.352 566.202 122.171 567.168 119.749C568.255 117.205 568.799 114.601 568.799 111.936ZM616.109 148.093L616.138 61.6066H639.87L639.841 148.093H616.109ZM660.818 128.47L706.109 79.4126H662.268V59.0628H735.275V78.6858L689.985 127.743H736V148.093H660.818V128.47Z"/>
<path d="M628.057 48.888C636.561 48.888 643.456 41.9735 643.456 33.444C643.456 24.9145 636.561 18 628.057 18C619.553 18 612.658 24.9145 612.658 33.444C612.658 41.9735 619.553 48.888 628.057 48.888Z" fill="url(#paint2_linear_52_112)"/>
<defs>
<linearGradient id="paint0_linear_52_112" x1="330.734" y1="6.91139" x2="330.734" y2="168" gradientUnits="userSpaceOnUse">
<stop stop-color="#00B7FF"/>
<stop offset="1" stop-color="#0009FF"/>
</linearGradient>
<linearGradient id="paint1_linear_52_112" x1="119.694" y1="168" x2="156.477" y2="-70.8221" gradientUnits="userSpaceOnUse">
<stop stop-color="#000DFF" stop-opacity="0.2"/>
<stop offset="1" stop-color="#4B54FF"/>
</linearGradient>
<linearGradient id="paint2_linear_52_112" x1="638.731" y1="18" x2="617.383" y2="48.888" gradientUnits="userSpaceOnUse">
<stop stop-color="#069EFF"/>
<stop offset="1" stop-color="#0324FF"/>
</linearGradient>
</defs>
</svg>
